<svg width="60" height="49" viewBox="0 0 60 49" fill="none" xmlns="http://www.w3.org/2000/svg">
<path d="M27.1085 17.0603C27.1085 21.1519 23.7095 24.4699 19.5181 24.4699C15.3267 24.4699 11.9277 21.1519 11.9277 17.0603C11.9277 12.9687 15.3267 9.65063 19.5181 9.65063C23.7095 9.65063 27.1085 12.9687 27.1085 17.0603Z" fill="#2D3436"/>
<path d="M41.98 21.5784C35.9907 21.5784 32.9961 30.6145 28.5042 30.6145C24.0122 30.6145 24.0152 27.6025 18.023 27.6025C12.0337 27.6025 9.03613 39.6507 9.03613 39.6507H50.9638C50.9638 39.6507 47.9692 21.5784 41.98 21.5784Z" fill="#2D3436"/>
<path d="M54 0.614502H6C2.691 0.614502 0 3.28929 0 6.57836V42.3615C0 45.6506 2.691 48.3253 6 48.3253H54C57.309 48.3253 60 45.6506 60 42.3615V6.57836C60 3.28929 57.309 0.614502 54 0.614502ZM54 42.3615H6V6.57836H54V42.3615Z" fill="#2D3436"/>
</svg>
