<svg width="142" height="138" viewBox="0 0 142 138" fill="none" xmlns="http://www.w3.org/2000/svg">
<path d="M138.619 49.9078L92.6458 45.5955L74.3837 2.7075C73.1049 -0.295565 68.895 -0.295565 67.6166 2.7075L49.3545 45.5952L3.38096 49.9078C0.161732 50.2096 -1.13902 54.2591 1.28958 56.417L35.9768 87.2354L25.8255 132.789C25.1146 135.978 28.5208 138.481 31.3004 136.812L71.0002 112.971L110.7 136.812C113.48 138.481 116.885 135.978 116.175 132.789L106.023 87.2354L140.711 56.417C143.139 54.2591 141.838 50.2096 138.619 49.9078Z" fill="#FFDC64"/>
<path d="M81.0243 18.3034L74.3833 2.7075C73.1046 -0.295565 68.8947 -0.295565 67.6163 2.7075L49.3542 45.5951L3.38096 49.9078C0.161732 50.2096 -1.13902 54.2591 1.28958 56.417L35.9768 87.2354L25.8255 132.789C25.1146 135.978 28.5208 138.481 31.3004 136.812L36.5842 133.639C45.2463 76.9288 69.5983 35.2996 81.0243 18.3034Z" fill="#FFC850"/>
</svg>
